<svg width="1150" height="956" viewBox="0 0 1150 956" fill="none" xmlns="http://www.w3.org/2000/svg">
<path opacity="0.1" fill-rule="evenodd" clip-rule="evenodd" d="M0 125.677C28.548 146.04 57.9941 217.405 58.441 220.63C59.4665 219.877 60.8047 218.595 62.4796 216.991C67.975 211.729 77.095 202.996 90.6879 198.051C106.272 192.383 119.367 192.941 124.502 193.159H124.503H124.503H124.503H124.504H124.504H124.504C125.212 193.189 125.769 193.213 126.16 193.213C124.547 189.988 98.8079 127.339 105.187 86.9049C105.187 86.9049 48.5587 53.1371 17.5261 0L54.3167 100.936C57.6793 100.958 60.8526 103.077 62.1042 106.474C63.709 110.83 61.5471 115.638 57.2755 117.212C53.004 118.787 48.2403 116.532 46.6355 112.176C45.4434 108.94 46.33 105.455 48.6157 103.231L11.7624 2.12449C23.0491 46.9756 8.62356 103.181 0 125.677ZM1091.56 220.63C1092.01 217.405 1121.45 146.04 1150 125.677C1141.38 103.181 1126.95 46.9756 1138.24 2.12449L1101.38 103.231C1103.67 105.455 1104.56 108.94 1103.36 112.176C1101.76 116.532 1097 118.787 1092.72 117.212C1088.45 115.638 1086.29 110.83 1087.9 106.474C1089.15 103.077 1092.32 100.958 1095.68 100.936L1132.47 0C1101.44 53.1371 1044.81 86.9049 1044.81 86.9049C1051.19 127.339 1025.45 189.988 1023.84 193.213C1024.23 193.213 1024.79 193.189 1025.5 193.159C1030.63 192.941 1043.73 192.383 1059.31 198.051C1072.9 202.996 1082.03 211.729 1087.52 216.991C1089.2 218.595 1090.53 219.877 1091.56 220.63ZM725.556 933.469C746.517 959.273 807.786 967.337 831.971 933.469C850.388 907.678 871.604 844.141 871.604 844.141C871.604 844.141 857.769 827.345 831.971 817.668C806.174 807.992 791.662 809.879 791.662 809.879C740.584 863.92 669.729 659.253 638.817 569.962L638.816 569.959C633.815 555.514 629.86 544.09 627.203 537.268C672.147 425.56 773.927 123.158 573.995 122.57C374.064 121.981 465.968 430.606 512.726 537.268C509.493 545.57 504.625 560.69 498.482 579.773C468.375 673.3 407.624 862.024 358.338 809.879C358.338 809.879 343.826 807.992 318.029 817.668C292.231 827.345 278.396 844.141 278.396 844.141C278.396 844.141 299.612 907.678 318.029 933.469C342.214 967.337 403.483 959.273 424.444 933.469C509.696 828.517 573.995 620.912 573.995 620.912C573.995 620.912 640.304 828.517 725.556 933.469ZM573.995 201.595C699.16 201.595 573.995 498.342 573.995 498.342C573.995 498.342 451.287 201.595 573.995 201.595ZM1003.08 238.688C930.261 409.882 804.561 775.737 804.561 775.737C828.746 769.286 877.756 784.306 888.403 809.287C943.841 666.878 1030.54 411.624 1077.15 266.105C1077.15 266.105 1061.7 248.364 1043.19 241.914C1024.68 235.463 1003.08 238.688 1003.08 238.688ZM797.295 802.729C793.275 795.09 794.887 788.639 802.134 785.7C810.038 783.16 827.292 784.39 843.258 790.251C861.507 796.952 879.233 808.668 883.566 817.668C887.899 826.668 874.575 834.313 874.575 834.313C874.575 834.313 859.586 817.577 835.196 809.287C810.805 800.997 797.295 802.729 797.295 802.729ZM1048.03 229.989C1070.82 238.538 1081.42 252.188 1081.42 252.188L1086.72 233.532C1086.72 233.532 1078.66 219.017 1057.7 210.954C1036.74 202.89 1017.39 206.115 1017.39 206.115L1008.25 227.235C1008.25 227.235 1025.31 221.469 1048.03 229.989ZM345.439 775.737C345.439 775.737 219.739 409.882 146.921 238.688C146.921 238.688 125.324 235.463 106.811 241.914C88.2995 248.364 72.8469 266.105 72.8469 266.105C119.463 411.624 206.158 666.878 261.597 809.287C272.244 784.306 321.254 769.286 345.439 775.737ZM101.974 229.989C79.1834 238.538 68.5801 252.188 68.5801 252.188L63.278 233.532C63.278 233.532 71.3398 219.017 92.3003 210.954C113.261 202.89 132.609 206.115 132.609 206.115L141.752 227.235C141.752 227.235 124.686 221.469 101.974 229.989ZM352.705 802.729C356.725 795.09 355.113 788.639 347.866 785.7C339.962 783.16 322.708 784.39 306.742 790.251C288.493 796.952 270.767 808.668 266.434 817.668C262.101 826.668 275.425 834.313 275.425 834.313C275.425 834.313 290.414 817.577 314.804 809.287C339.194 800.997 352.705 802.729 352.705 802.729ZM1073.07 161.044C1079.48 161.044 1084.69 155.84 1084.69 149.42C1084.69 143.001 1079.48 137.797 1073.07 137.797C1066.65 137.797 1061.44 143.001 1061.44 149.42C1061.44 155.84 1066.65 161.044 1073.07 161.044Z" fill="#01AFAF"/>
</svg>
