<svg width="740" height="564" viewBox="0 0 740 564" fill="none" xmlns="http://www.w3.org/2000/svg">
<path opacity="0.2" fill-rule="evenodd" clip-rule="evenodd" d="M495.527 65.4868C679.066 -42.9905 607.129 105.059 658.676 189.15C694.791 248.068 776.409 398.401 721.592 486.376C672.176 565.685 604.599 481.873 358.846 544.086C175.5 590.5 89.8847 548.971 27.3416 486.376C-35.1445 423.838 23.0842 326.533 66.8271 239.05C153.611 65.4868 315.395 171.95 495.527 65.4868Z" fill="#368F8B"/>
<g clip-path="url(#clip0_559:3254)">
<path d="M621.811 375.788C642.184 355.415 642.184 322.384 621.811 302.01C601.439 281.637 568.409 281.637 548.036 302.01C527.664 322.384 527.664 355.415 548.036 375.788C568.409 396.161 601.439 396.161 621.811 375.788Z" fill="#051721"/>
<path d="M584.633 343.697C594.248 341.569 600.316 332.05 598.188 322.436C596.06 312.821 586.541 306.752 576.927 308.881C567.313 311.009 561.244 320.528 563.372 330.142C565.5 339.757 575.019 345.825 584.633 343.697Z" fill="white"/>
<path d="M574.843 327.487C578.047 326.778 580.07 323.605 579.361 320.4C578.652 317.195 575.479 315.172 572.274 315.882C569.069 316.591 567.046 319.764 567.756 322.969C568.465 326.174 571.638 328.197 574.843 327.487Z" fill="#3F3D56"/>
<path d="M582.863 303.63C561.528 303.591 546.551 299.78 546.587 280.451C546.623 261.121 563.947 245.484 585.282 245.523C606.616 245.562 623.883 261.264 623.847 280.593C623.811 299.923 604.198 303.67 582.863 303.63Z" fill="#F9A826"/>
<path d="M666.689 347.619C660.569 368.849 642.701 383.711 624.062 396.335C621.459 398.098 618.856 399.821 616.252 401.503C616.234 401.51 616.216 401.527 616.198 401.535C616.073 401.615 615.947 401.696 615.831 401.777C615.293 402.123 614.755 402.47 614.222 402.813L614.515 402.944C614.515 402.944 614.803 403.097 614.488 402.969C614.394 402.93 614.296 402.894 614.203 402.855C603.375 398.488 592.355 393.799 584.056 385.617C575.448 377.122 570.418 363.796 575.079 352.635C575.692 351.174 576.466 349.784 577.386 348.494C577.764 347.953 578.172 347.435 578.596 346.927C581.167 343.789 584.527 341.392 588.332 339.984C592.136 338.575 596.247 338.205 600.242 338.912C604.237 339.618 607.971 341.376 611.061 344.005C614.151 346.634 616.486 350.038 617.824 353.868C619.193 341.118 608.68 330.437 598.563 322.557C588.441 314.681 576.94 306.103 574.983 293.424C573.89 286.369 576.343 279.533 580.812 274.045C580.95 273.878 581.088 273.711 581.231 273.549C586.671 267.157 594.321 263.052 602.655 262.055C618.176 260.442 633.251 268.658 644.527 279.449C662.674 296.812 673.645 323.481 666.689 347.619Z" fill="#E6E6E6"/>
<path d="M637.516 319.85C640.494 324.485 642.781 329.529 644.304 334.824C645.592 339.556 646.165 344.454 646.005 349.356C645.589 359.442 642.758 369.281 637.748 378.045C633.975 384.694 629.376 390.84 624.062 396.335C621.459 398.098 618.856 399.821 616.252 401.503C616.234 401.51 616.216 401.527 616.198 401.535C616.073 401.615 615.947 401.696 615.83 401.777C615.293 402.123 614.755 402.47 614.222 402.813C614.222 402.813 614.802 403.097 614.488 402.969C614.394 402.93 614.296 402.894 614.203 402.855C615.173 394.898 614.223 386.825 611.43 379.311C608.638 371.797 604.086 365.062 598.154 359.67C592.209 354.361 585.093 350.531 577.386 348.494C577.764 347.953 578.172 347.435 578.596 346.927C581.572 347.762 584.469 348.858 587.252 350.203C597.202 354.981 605.349 362.836 610.487 372.604C615.098 381.475 617.082 391.477 616.207 401.436C616.652 401.032 617.097 400.62 617.529 400.212C625.758 392.541 633.066 383.735 638.012 373.573C642.303 364.967 644.412 355.438 644.153 345.825C643.749 335.343 639.573 325.634 633.526 317.182C626.899 308.164 619.07 300.095 610.257 293.199C601.375 286.085 591.656 280.085 581.317 275.332C581.083 275.223 580.901 275.028 580.807 274.789C580.713 274.549 580.715 274.283 580.812 274.044C580.881 273.831 581.031 273.653 581.231 273.549C581.334 273.505 581.445 273.484 581.556 273.489C581.668 273.494 581.777 273.524 581.876 273.576C583.152 274.164 584.42 274.76 585.678 275.381C596.152 280.559 605.942 287.017 614.824 294.608C623.404 301.923 631.48 310.28 637.516 319.85Z" fill="white"/>
<path d="M155.964 406.458C163.258 406.458 169.171 404.241 169.171 401.506C169.171 398.77 163.258 396.553 155.964 396.553C148.67 396.553 142.757 398.77 142.757 401.506C142.757 404.241 148.67 406.458 155.964 406.458Z" fill="#051721"/>
<path d="M187.66 405.797C194.954 405.797 200.867 403.58 200.867 400.845C200.867 398.109 194.954 395.892 187.66 395.892C180.367 395.892 174.454 398.109 174.454 400.845C174.454 403.58 180.367 405.797 187.66 405.797Z" fill="#051721"/>
<path d="M229.739 322.553C242.219 315.358 250.505 306.349 248.246 302.431C245.988 298.513 234.04 301.169 221.559 308.364C209.079 315.559 200.793 324.568 203.051 328.486C205.31 332.404 217.258 329.748 229.739 322.553Z" fill="#051721"/>
<path d="M218.022 340.195C222.637 311.755 203.324 284.959 174.885 280.343C146.446 275.728 119.65 295.042 115.035 323.482C110.42 351.922 129.734 378.718 158.173 383.333C186.612 387.948 213.407 368.634 218.022 340.195Z" fill="#051721"/>
<path d="M158.605 372.779H142.757V401.175H158.605V372.779Z" fill="#051721"/>
<path d="M190.302 372.779H174.454V401.175H190.302V372.779Z" fill="#051721"/>
<path d="M167.85 336.46C177.697 336.46 185.679 328.477 185.679 318.63C185.679 308.783 177.697 300.801 167.85 300.801C158.003 300.801 150.021 308.783 150.021 318.63C150.021 328.477 158.003 336.46 167.85 336.46Z" fill="white"/>
<path d="M167.849 324.574C171.132 324.574 173.792 321.913 173.792 318.631C173.792 315.348 171.132 312.688 167.849 312.688C164.567 312.688 161.906 315.348 161.906 318.631C161.906 321.913 164.567 324.574 167.849 324.574Z" fill="#3F3D56"/>
<path d="M115.926 283.323C111.713 264.458 125.178 245.396 146 240.746C166.822 236.097 187.116 247.621 191.329 266.485C195.541 285.35 181.741 292.308 160.919 296.957C140.097 301.607 120.138 302.188 115.926 283.323Z" fill="#E6E6E6"/>
<path d="M131.339 318.809C133.277 314.723 124.297 306.406 111.281 300.233C98.2651 294.059 86.1427 292.367 84.2048 296.453C82.2668 300.54 91.2471 308.857 104.263 315.03C117.279 321.203 129.401 322.895 131.339 318.809Z" fill="#051721"/>
<path d="M140.906 350.658C140.906 355.764 154.053 365.847 168.641 365.847C183.228 365.847 196.906 351.472 196.906 346.366C196.906 341.26 183.228 347.357 168.641 347.357C154.053 347.357 140.906 345.552 140.906 350.658Z" fill="white"/>
<path d="M348.431 406.458C355.725 406.458 361.638 404.241 361.638 401.506C361.638 398.77 355.725 396.553 348.431 396.553C341.138 396.553 335.225 398.77 335.225 401.506C335.225 404.241 341.138 406.458 348.431 406.458Z" fill="#051721"/>
<path d="M316.735 405.797C324.029 405.797 329.941 403.58 329.941 400.845C329.941 398.109 324.029 395.892 316.735 395.892C309.441 395.892 303.528 398.109 303.528 400.845C303.528 403.58 309.441 405.797 316.735 405.797Z" fill="#051721"/>
<path d="M301.345 328.485C303.603 324.567 295.317 315.559 282.837 308.364C270.356 301.169 258.408 298.513 256.15 302.431C253.891 306.349 262.177 315.357 274.658 322.552C287.138 329.747 299.086 332.404 301.345 328.485Z" fill="#051721"/>
<path d="M337.867 384.006C366.678 384.006 390.034 360.649 390.034 331.838C390.034 303.026 366.678 279.669 337.867 279.669C309.056 279.669 285.7 303.026 285.7 331.838C285.7 360.649 309.056 384.006 337.867 384.006Z" fill="#051721"/>
<path d="M361.638 372.779H345.79V401.175H361.638V372.779Z" fill="#051721"/>
<path d="M329.942 372.779H314.094V401.175H329.942V372.779Z" fill="#051721"/>
<path d="M325.644 336.46C335.491 336.46 343.473 328.477 343.473 318.63C343.473 308.783 335.491 300.801 325.644 300.801C315.797 300.801 307.814 308.783 307.814 318.63C307.814 328.477 315.797 336.46 325.644 336.46Z" fill="white"/>
<path d="M321.347 320.394C323.676 318.068 323.691 314.307 321.381 311.995C319.071 309.682 315.31 309.694 312.982 312.021C310.653 314.347 310.638 318.108 312.948 320.42C315.258 322.733 319.019 322.721 321.347 320.394Z" fill="#3F3D56"/>
<path d="M343.475 296.957C322.653 292.308 308.854 285.35 313.066 266.485C317.278 247.62 337.572 236.096 358.394 240.746C379.216 245.395 392.681 264.457 388.469 283.322C384.257 302.187 364.297 301.606 343.475 296.957Z" fill="#F9A826"/>
<path d="M392.417 371.603C396.788 370.442 397.334 358.214 393.636 344.291C389.938 330.368 383.397 320.022 379.026 321.183C374.655 322.344 374.11 334.572 377.808 348.495C381.506 362.419 388.047 372.764 392.417 371.603Z" fill="#051721"/>
<path d="M326.048 347.357C316.471 347.357 307.491 341.26 307.491 346.366C307.491 351.472 316.47 365.847 326.048 365.847C335.625 365.847 344.256 355.764 344.256 350.659C344.256 345.553 335.625 347.357 326.048 347.357Z" fill="white"/>
<path d="M258.629 245.341H253.996C249.846 245.336 245.867 243.685 242.932 240.751C239.998 237.816 238.347 233.837 238.343 229.687V225.797C238.343 216.164 240.168 208.097 243.768 201.822C248.131 194.523 253.221 187.684 258.96 181.41C262.77 177.578 266.227 173.411 269.29 168.959C271.487 165.5 272.621 161.473 272.552 157.375C272.552 147.711 266.256 143.013 253.304 143.013C246.119 143.095 238.98 144.166 232.088 146.198C229.43 146.957 226.632 147.088 223.915 146.582C221.198 146.076 218.635 144.946 216.428 143.281C214.222 141.616 212.432 139.462 211.199 136.988C209.967 134.514 209.325 131.788 209.325 129.023V121.15C209.31 117.76 210.278 114.439 212.112 111.589C213.947 108.739 216.569 106.482 219.66 105.092C231.832 99.8975 244.958 97.3151 258.191 97.5119C272.053 97.5119 284.567 99.8405 295.386 104.432C306.224 109.034 314.787 115.524 320.837 123.721C326.868 131.86 330.073 141.747 329.965 151.877C329.965 162.755 326.995 172.229 321.139 180.036C315.346 187.764 307.042 196.225 296.458 205.184C290.881 209.822 285.596 214.8 280.634 220.091C277.429 223.543 275.164 227.761 274.055 232.339C273.438 235.981 271.549 239.286 268.724 241.667C265.9 244.047 262.323 245.349 258.629 245.341Z" fill="#F9A826"/>
<path d="M256.054 318.954H255.443C247.752 318.949 240.378 315.891 234.941 310.45C229.504 305.01 226.45 297.633 226.45 289.942C226.45 282.25 229.504 274.874 234.941 269.433C240.378 263.993 247.752 260.934 255.443 260.929H256.054C259.866 260.927 263.64 261.675 267.162 263.132C270.684 264.589 273.885 266.726 276.581 269.42C279.277 272.115 281.415 275.314 282.875 278.835C284.334 282.356 285.085 286.13 285.085 289.942C285.085 293.753 284.334 297.528 282.875 301.049C281.415 304.57 279.277 307.769 276.581 310.463C273.885 313.158 270.684 315.294 267.162 316.751C263.64 318.208 259.866 318.957 256.054 318.954Z" fill="#F9A826"/>
<path d="M444.597 407.005H67.8861C67.5648 407.005 67.2568 406.877 67.0296 406.65C66.8024 406.423 66.6748 406.115 66.6748 405.794C66.6748 405.472 66.8024 405.164 67.0296 404.937C67.2568 404.71 67.5648 404.582 67.8861 404.582H444.597C444.918 404.582 445.226 404.71 445.453 404.937C445.68 405.164 445.808 405.472 445.808 405.794C445.808 406.115 445.68 406.423 445.453 406.65C445.226 406.877 444.918 407.005 444.597 407.005Z" fill="#CCCCCC"/>
<path d="M698.967 407.005H497.893C497.572 407.005 497.264 406.877 497.036 406.65C496.809 406.423 496.682 406.115 496.682 405.794C496.682 405.472 496.809 405.164 497.036 404.937C497.264 404.71 497.572 404.582 497.893 404.582H698.967C699.288 404.582 699.596 404.71 699.823 404.937C700.051 405.164 700.178 405.472 700.178 405.794C700.178 406.115 700.051 406.423 699.823 406.65C699.596 406.877 699.288 407.005 698.967 407.005Z" fill="#CCCCCC"/>
<path d="M574.169 371.622C588.572 371.34 600.176 367.446 600.087 362.925C599.999 358.403 588.251 354.966 573.849 355.248C559.446 355.529 547.842 359.423 547.93 363.945C548.019 368.467 559.766 371.904 574.169 371.622Z" fill="#051721"/>
<path d="M561.075 180.488H529.582C527.976 180.486 526.437 179.847 525.301 178.712C524.166 177.576 523.527 176.037 523.525 174.431V142.937C523.527 141.331 524.166 139.791 525.301 138.656C526.437 137.52 527.976 136.882 529.582 136.88H561.075C562.681 136.882 564.22 137.52 565.356 138.656C566.491 139.791 567.13 141.331 567.132 142.937V174.431C567.13 176.037 566.491 177.576 565.356 178.712C564.22 179.847 562.681 180.486 561.075 180.488ZM529.582 139.303C528.618 139.304 527.695 139.687 527.013 140.368C526.332 141.049 525.949 141.973 525.948 142.937V174.431C525.949 175.394 526.332 176.318 527.013 176.999C527.695 177.681 528.618 178.064 529.582 178.065H561.075C562.039 178.064 562.962 177.681 563.644 176.999C564.325 176.318 564.708 175.394 564.709 174.431V142.937C564.708 141.973 564.325 141.049 563.644 140.368C562.962 139.687 562.039 139.304 561.075 139.303H529.582Z" fill="#F2F2F2"/>
<path d="M575.611 159.895H544.117C542.512 159.893 540.972 159.254 539.837 158.119C538.702 156.983 538.063 155.444 538.061 153.838V122.344C538.063 120.738 538.702 119.199 539.837 118.063C540.972 116.928 542.512 116.289 544.117 116.287H575.611C577.217 116.289 578.756 116.928 579.891 118.063C581.027 119.199 581.666 120.738 581.667 122.344V153.838C581.666 155.444 581.027 156.983 579.891 158.119C578.756 159.254 577.217 159.893 575.611 159.895ZM544.117 118.71C543.154 118.711 542.23 119.094 541.549 119.775C540.868 120.457 540.485 121.38 540.484 122.344V153.838C540.485 154.802 540.868 155.725 541.549 156.407C542.23 157.088 543.154 157.471 544.117 157.472H575.611C576.574 157.471 577.498 157.088 578.179 156.407C578.861 155.725 579.244 154.802 579.245 153.838V122.344C579.244 121.38 578.861 120.457 578.179 119.775C577.498 119.094 576.574 118.711 575.611 118.71H544.117Z" fill="#F2F2F2"/>
<path d="M327.298 59.3549H295.804C294.199 59.3531 292.659 58.7144 291.524 57.5789C290.389 56.4435 289.75 54.9041 289.748 53.2983V21.8039C289.75 20.1982 290.389 18.6587 291.524 17.5233C292.659 16.3879 294.199 15.7492 295.804 15.7473H327.298C328.904 15.7492 330.443 16.3879 331.578 17.5233C332.714 18.6587 333.353 20.1982 333.354 21.8039V53.2983C333.353 54.9041 332.714 56.4435 331.578 57.5789C330.443 58.7144 328.904 59.3531 327.298 59.3549ZM295.804 18.17C294.841 18.171 293.917 18.5542 293.236 19.2355C292.555 19.9168 292.172 20.8405 292.171 21.8039V53.2983C292.172 54.2618 292.555 55.1855 293.236 55.8668C293.917 56.548 294.841 56.9312 295.804 56.9323H327.298C328.261 56.9312 329.185 56.548 329.866 55.8668C330.548 55.1855 330.931 54.2618 330.932 53.2983V21.8039C330.931 20.8405 330.548 19.9168 329.866 19.2355C329.185 18.5542 328.261 18.171 327.298 18.17H295.804Z" fill="#F2F2F2"/>
<path d="M307.916 43.6076H276.422C274.816 43.6058 273.277 42.9671 272.142 41.8316C271.006 40.6962 270.368 39.1568 270.366 37.551V6.05661C270.368 4.45086 271.006 2.91143 272.142 1.77599C273.277 0.640551 274.816 0.00183703 276.422 0H307.916C309.521 0.00183703 311.061 0.640551 312.196 1.77599C313.332 2.91143 313.97 4.45086 313.972 6.05661V37.551C313.97 39.1568 313.332 40.6962 312.196 41.8316C311.061 42.9671 309.521 43.6058 307.916 43.6076ZM276.422 2.42265C275.459 2.4237 274.535 2.8069 273.854 3.48817C273.173 4.16945 272.789 5.09315 272.788 6.05661V37.551C272.789 38.5145 273.173 39.4382 273.854 40.1195C274.535 40.8007 275.459 41.1839 276.422 41.185H307.916C308.879 41.1839 309.803 40.8007 310.484 40.1195C311.165 39.4382 311.549 38.5145 311.55 37.551V6.05661C311.549 5.09315 311.165 4.16945 310.484 3.48817C309.803 2.8069 308.879 2.4237 307.916 2.42265H276.422Z" fill="#F2F2F2"/>
<path d="M455.765 229.712C460.091 229.712 463.598 226.205 463.598 221.878C463.598 217.552 460.091 214.045 455.765 214.045C451.439 214.045 447.932 217.552 447.932 221.878C447.932 226.205 451.439 229.712 455.765 229.712Z" fill="#F2F2F2"/>
<path d="M140.831 201.851C145.157 201.851 148.664 198.344 148.664 194.018C148.664 189.691 145.157 186.184 140.831 186.184C136.505 186.184 132.998 189.691 132.998 194.018C132.998 198.344 136.505 201.851 140.831 201.851Z" fill="#F2F2F2"/>
<path d="M668.951 269.685C673.278 269.685 676.785 266.178 676.785 261.852C676.785 257.525 673.278 254.018 668.951 254.018C664.625 254.018 661.118 257.525 661.118 261.852C661.118 266.178 664.625 269.685 668.951 269.685Z" fill="#F2F2F2"/>
</g>
<defs>
<clipPath id="clip0_559:3254">
<rect width="633.504" height="407.005" fill="white" transform="translate(66.6743)"/>
</clipPath>
</defs>
</svg>
