<svg width="750" height="689" viewBox="0 0 750 689" fill="none" xmlns="http://www.w3.org/2000/svg">
<path opacity="0.2" fill-rule="evenodd" clip-rule="evenodd" d="M338.059 11.1972C413.872 -6.53516 505.884 -5.39461 562.994 47.5675C619.572 100.037 585.513 195.994 614.478 267.544C647.18 348.326 785.182 413.222 741.556 488.656C693.358 571.994 558.458 517.754 462.97 529.514C420.503 534.745 377.343 521.376 338.059 538.35C249.802 576.482 193.071 706.531 98.9891 686.778C18.554 669.891 0.465115 549.632 0.00144204 467.375C-0.479171 382.113 119.298 203.1 178.419 137.518C225.002 85.8451 270.347 27.0347 338.059 11.1972Z" fill="#368F8B"/>
<g clip-path="url(#clip0_559:3255)">
<path d="M75.0139 427.169L74.1004 426.827C73.8997 426.751 53.9219 419.11 44.5634 401.783C35.2045 384.456 39.7871 363.594 39.8345 363.386L40.0502 362.436L40.9632 362.777C41.1639 362.853 61.1413 370.494 70.5002 387.821C79.8591 405.148 75.2765 426.01 75.2291 426.218L75.0139 427.169ZM46.062 400.977C53.9742 415.626 69.7613 423.136 73.7613 424.85C74.5218 420.57 76.9068 403.263 69.0016 388.627C61.0973 373.993 45.304 366.472 41.3023 364.754C40.5414 369.036 38.1572 386.342 46.062 400.977Z" fill="#051721"/>
<path d="M51.7156 395.705C68.534 405.807 75.0113 425.871 75.0113 425.871C75.0113 425.871 54.2206 429.558 37.4022 419.456C20.5837 409.355 14.1064 389.29 14.1064 389.29C14.1064 389.29 34.8972 385.603 51.7156 395.705Z" fill="#D0CDE1"/>
<path d="M589.962 132.716H402.417V128.857H317.378V132.716H129.06C127.394 132.716 125.744 133.044 124.205 133.68C122.666 134.316 121.268 135.249 120.09 136.425C118.912 137.601 117.977 138.998 117.34 140.534C116.702 142.071 116.374 143.718 116.374 145.381V401.757C116.374 405.116 117.711 408.338 120.09 410.713C122.469 413.088 125.695 414.422 129.06 414.422H589.962C591.628 414.422 593.278 414.094 594.817 413.458C596.356 412.822 597.754 411.889 598.932 410.713C600.11 409.537 601.045 408.14 601.682 406.604C602.32 405.067 602.648 403.42 602.648 401.757V145.381C602.648 143.718 602.32 142.071 601.682 140.534C601.045 138.998 600.11 137.601 598.932 136.425C597.754 135.249 596.356 134.316 594.817 133.68C593.278 133.044 591.628 132.716 589.962 132.716Z" fill="#051721"/>
<path d="M585.64 155.098H133.382V409.791H585.64V155.098Z" fill="#F9A826"/>
<path d="M359.124 148.152C361.686 148.152 363.762 146.078 363.762 143.521C363.762 140.963 361.686 138.89 359.124 138.89C356.562 138.89 354.485 140.963 354.485 143.521C354.485 146.078 356.562 148.152 359.124 148.152Z" fill="#F9A826"/>
<path d="M559.677 187.513H538.239V166.111H559.677V187.513ZM539.171 186.583H558.745V167.041H539.171V186.583Z" fill="#051721"/>
<path d="M615.346 405.161H571.209V401.986C571.209 401.903 571.193 401.821 571.161 401.745C571.129 401.669 571.083 401.599 571.024 401.541C570.966 401.482 570.896 401.436 570.82 401.404C570.743 401.373 570.661 401.356 570.579 401.356H555.446C555.363 401.356 555.281 401.373 555.204 401.404C555.128 401.436 555.058 401.482 555 401.541C554.941 401.599 554.895 401.669 554.863 401.745C554.831 401.821 554.815 401.903 554.815 401.986V405.161H545.357V401.986C545.357 401.903 545.341 401.821 545.309 401.745C545.277 401.669 545.231 401.599 545.172 401.541C545.114 401.482 545.044 401.436 544.968 401.404C544.891 401.373 544.809 401.356 544.727 401.356H529.594C529.511 401.356 529.429 401.373 529.352 401.404C529.276 401.436 529.206 401.482 529.148 401.541C529.089 401.599 529.043 401.669 529.011 401.745C528.98 401.821 528.963 401.903 528.963 401.986V405.161H519.505V401.986C519.505 401.903 519.489 401.821 519.457 401.745C519.426 401.669 519.379 401.599 519.321 401.541C519.262 401.482 519.192 401.436 519.116 401.404C519.039 401.373 518.957 401.356 518.875 401.356H503.742C503.659 401.356 503.577 401.373 503.501 401.404C503.424 401.436 503.355 401.482 503.296 401.541C503.237 401.599 503.191 401.669 503.159 401.745C503.128 401.821 503.111 401.903 503.111 401.986V405.161H493.653V401.986C493.653 401.903 493.637 401.821 493.605 401.745C493.574 401.669 493.527 401.599 493.469 401.541C493.41 401.482 493.341 401.436 493.264 401.404C493.188 401.373 493.106 401.356 493.023 401.356H477.89C477.807 401.356 477.725 401.373 477.649 401.404C477.572 401.436 477.503 401.482 477.444 401.541C477.386 401.599 477.339 401.669 477.307 401.745C477.276 401.821 477.259 401.903 477.259 401.986V405.161H467.801V401.986C467.801 401.903 467.785 401.821 467.753 401.745C467.722 401.669 467.675 401.599 467.617 401.541C467.558 401.482 467.489 401.436 467.412 401.404C467.336 401.373 467.254 401.356 467.171 401.356H452.038C451.955 401.356 451.873 401.373 451.797 401.404C451.72 401.436 451.651 401.482 451.592 401.541C451.534 401.599 451.487 401.669 451.455 401.745C451.424 401.821 451.407 401.903 451.407 401.986V405.161H441.949V401.986C441.949 401.903 441.933 401.821 441.901 401.745C441.87 401.669 441.823 401.599 441.765 401.541C441.706 401.482 441.637 401.436 441.56 401.404C441.484 401.373 441.402 401.356 441.319 401.356H426.186C426.103 401.356 426.021 401.373 425.945 401.404C425.868 401.436 425.799 401.482 425.74 401.541C425.682 401.599 425.635 401.669 425.604 401.745C425.572 401.821 425.556 401.903 425.556 401.986V405.161H416.098V401.986C416.098 401.903 416.081 401.821 416.049 401.745C416.018 401.669 415.971 401.599 415.913 401.541C415.854 401.482 415.785 401.436 415.708 401.404C415.632 401.373 415.55 401.356 415.467 401.356H296.926C296.844 401.356 296.762 401.373 296.685 401.404C296.609 401.436 296.539 401.482 296.481 401.541C296.422 401.599 296.376 401.669 296.344 401.745C296.312 401.821 296.296 401.903 296.296 401.986V405.161H286.838V401.986C286.838 401.903 286.822 401.821 286.79 401.745C286.758 401.669 286.712 401.599 286.653 401.541C286.595 401.482 286.525 401.436 286.449 401.404C286.372 401.373 286.29 401.356 286.207 401.356H271.074C270.992 401.356 270.91 401.373 270.833 401.404C270.757 401.436 270.687 401.482 270.629 401.541C270.57 401.599 270.524 401.669 270.492 401.745C270.46 401.821 270.444 401.903 270.444 401.986V405.161H260.986V401.986C260.986 401.903 260.97 401.821 260.938 401.745C260.906 401.669 260.86 401.599 260.801 401.541C260.743 401.482 260.673 401.436 260.597 401.404C260.52 401.373 260.438 401.356 260.355 401.356H245.223C245.14 401.356 245.058 401.373 244.981 401.404C244.905 401.436 244.835 401.482 244.777 401.541C244.718 401.599 244.672 401.669 244.64 401.745C244.608 401.821 244.592 401.903 244.592 401.986V405.161H235.134V401.986C235.134 401.903 235.118 401.821 235.086 401.745C235.054 401.669 235.008 401.599 234.949 401.541C234.891 401.482 234.821 401.436 234.745 401.404C234.668 401.373 234.586 401.356 234.503 401.356H219.371C219.288 401.356 219.206 401.373 219.129 401.404C219.053 401.436 218.983 401.482 218.925 401.541C218.866 401.599 218.82 401.669 218.788 401.745C218.756 401.821 218.74 401.903 218.74 401.986V405.161H209.282V401.986C209.282 401.903 209.266 401.821 209.234 401.745C209.202 401.669 209.156 401.599 209.097 401.541C209.039 401.482 208.969 401.436 208.893 401.404C208.816 401.373 208.734 401.356 208.652 401.356H193.519C193.436 401.356 193.354 401.373 193.277 401.404C193.201 401.436 193.131 401.482 193.073 401.541C193.014 401.599 192.968 401.669 192.936 401.745C192.904 401.821 192.888 401.903 192.888 401.986V405.161H183.43V401.986C183.43 401.903 183.414 401.821 183.382 401.745C183.35 401.669 183.304 401.599 183.245 401.541C183.187 401.482 183.117 401.436 183.041 401.404C182.964 401.373 182.882 401.356 182.8 401.356H167.667C167.584 401.356 167.502 401.373 167.425 401.404C167.349 401.436 167.279 401.482 167.221 401.541C167.162 401.599 167.116 401.669 167.084 401.745C167.053 401.821 167.036 401.903 167.036 401.986V405.161H157.578V401.986C157.578 401.903 157.562 401.821 157.53 401.745C157.499 401.669 157.452 401.599 157.394 401.541C157.335 401.482 157.265 401.436 157.189 401.404C157.112 401.373 157.03 401.356 156.948 401.356H141.815C141.732 401.356 141.65 401.373 141.574 401.404C141.497 401.436 141.428 401.482 141.369 401.541C141.31 401.599 141.264 401.669 141.232 401.745C141.201 401.821 141.184 401.903 141.184 401.986V405.161H112.18C108.166 405.161 104.317 406.752 101.479 409.586C98.6412 412.419 97.0469 416.261 97.0469 420.268V427.099C97.0469 431.106 98.6412 434.949 101.479 437.782C104.317 440.615 108.166 442.207 112.18 442.207H615.346C619.36 442.207 623.209 440.615 626.047 437.782C628.885 434.949 630.479 431.106 630.479 427.099V420.268C630.479 416.261 628.885 412.419 626.047 409.586C623.209 406.752 619.36 405.161 615.346 405.161Z" fill="#051721"/>
<path d="M692.723 426.708H34.8037V428.712H692.723V426.708Z" fill="#051721"/>
<path d="M557.683 297.018H412.07V214.258H557.683V297.018ZM413.512 295.579H556.241V215.698H413.512V295.579Z" fill="#051721"/>
<path d="M290.967 313.569H161.213V232.969H290.967V313.569ZM162.655 312.13H289.525V234.408H162.655V312.13Z" fill="#051721"/>
<path d="M221.832 282.625L221.708 281.016C221.336 277.674 222.452 274.022 225.551 270.309C228.341 267.029 229.891 264.615 229.891 261.83C229.891 258.674 227.907 256.57 224.002 256.508C221.768 256.499 219.584 257.168 217.74 258.427L216.252 254.528C218.299 253.042 221.832 252.052 225.117 252.052C232.247 252.052 235.47 256.446 235.47 261.149C235.47 265.358 233.114 268.391 230.139 271.918C227.411 275.136 226.419 277.859 226.605 281.016L226.667 282.625L221.832 282.625ZM220.468 291.289C220.435 290.785 220.507 290.278 220.679 289.802C220.852 289.327 221.122 288.892 221.471 288.525C221.821 288.159 222.243 287.869 222.71 287.674C223.178 287.478 223.681 287.382 224.188 287.39C226.357 287.39 227.845 288.999 227.845 291.289C227.866 291.786 227.786 292.281 227.609 292.746C227.433 293.21 227.165 293.635 226.82 293.993C226.476 294.352 226.062 294.637 225.605 294.832C225.147 295.026 224.654 295.127 224.157 295.127C223.659 295.127 223.167 295.026 222.709 294.832C222.251 294.637 221.838 294.352 221.493 293.993C221.149 293.635 220.88 293.21 220.704 292.746C220.528 292.281 220.448 291.786 220.468 291.289Z" fill="#D0CDE1"/>
<path d="M480.619 264.634L480.494 263.024C480.123 259.683 481.239 256.031 484.338 252.318C487.128 249.038 488.678 246.624 488.678 243.839C488.678 240.683 486.694 238.579 482.788 238.517C480.555 238.508 478.371 239.177 476.527 240.436L475.039 236.536C477.085 235.051 480.619 234.061 483.904 234.061C491.033 234.061 494.257 238.455 494.257 243.158C494.257 247.367 491.901 250.4 488.925 253.927C486.198 257.145 485.206 259.868 485.392 263.024L485.454 264.634L480.619 264.634ZM479.255 273.298C479.221 272.793 479.293 272.287 479.466 271.811C479.639 271.336 479.908 270.901 480.258 270.534C480.607 270.168 481.029 269.878 481.497 269.682C481.964 269.487 482.467 269.391 482.974 269.399C485.144 269.399 486.632 271.008 486.632 273.298C486.652 273.795 486.572 274.29 486.396 274.755C486.22 275.219 485.952 275.643 485.607 276.002C485.262 276.36 484.849 276.646 484.391 276.84C483.933 277.035 483.441 277.136 482.943 277.136C482.446 277.136 481.953 277.035 481.496 276.84C481.038 276.646 480.624 276.36 480.28 276.002C479.935 275.643 479.667 275.219 479.491 274.755C479.315 274.29 479.234 273.795 479.255 273.298Z" fill="#D0CDE1"/>
<path d="M362.059 378.676C396.413 378.676 424.263 350.873 424.263 316.576C424.263 282.279 396.413 254.476 362.059 254.476C327.704 254.476 299.854 282.279 299.854 316.576C299.854 350.873 327.704 378.676 362.059 378.676Z" fill="#2F2E41"/>
<path d="M338.033 401.617L319.438 398.256L325.469 359.493L344.064 362.853L338.033 401.617Z" fill="#2F2E41"/>
<path d="M381.255 369.575L362.66 366.214L356.628 399.475L375.224 402.835L381.255 369.575Z" fill="#2F2E41"/>
<path d="M387.652 404.647C388.298 401.455 381.91 397.475 373.384 395.757C364.859 394.039 357.425 395.233 356.779 398.425C356.134 401.617 362.522 405.597 371.047 407.315C379.573 409.033 387.007 407.839 387.652 404.647Z" fill="#2F2E41"/>
<path d="M348.922 403.645C349.351 400.417 342.708 396.876 334.086 395.736C325.464 394.596 318.128 396.288 317.699 399.516C317.271 402.744 323.913 406.285 332.535 407.425C341.157 408.565 348.494 406.873 348.922 403.645Z" fill="#2F2E41"/>
<path d="M366.413 322.61C378.154 322.61 387.673 313.108 387.673 301.386C387.673 289.664 378.154 280.162 366.413 280.162C354.672 280.162 345.153 289.664 345.153 301.386C345.153 313.108 354.672 322.61 366.413 322.61Z" fill="white"/>
<path d="M375.15 300.853C379.064 300.853 382.237 297.686 382.237 293.779C382.237 289.872 379.064 286.704 375.15 286.704C371.236 286.704 368.063 289.872 368.063 293.779C368.063 297.686 371.236 300.853 375.15 300.853Z" fill="#051721"/>
<path d="M312.988 249.018C312.053 226.028 331.9 206.555 357.319 205.524C382.738 204.493 404.102 222.295 405.038 245.285C405.973 268.276 388.304 273.499 362.885 274.53C337.466 275.561 313.924 272.009 312.988 249.018Z" fill="white"/>
<path d="M421.677 314.764C438.42 310.932 451.016 303.573 449.811 298.325C448.607 293.078 434.057 291.93 417.314 295.761C400.571 299.593 387.975 306.953 389.18 312.2C390.384 317.447 404.934 318.595 421.677 314.764Z" fill="#2F2E41"/>
<path d="M299.571 335.036C316.314 331.204 328.911 323.845 327.706 318.597C326.501 313.35 311.951 312.202 295.208 316.033C278.465 319.865 265.869 327.225 267.074 332.472C268.279 337.719 282.828 338.867 299.571 335.036Z" fill="#2F2E41"/>
<path d="M344.973 341.049C344.642 342.878 344.674 344.754 345.069 346.569C345.463 348.385 346.212 350.106 347.273 351.633C348.333 353.16 349.685 354.463 351.25 355.469C352.815 356.474 354.564 357.162 356.395 357.493C358.226 357.824 360.105 357.792 361.924 357.398C363.743 357.004 365.467 356.256 366.996 355.197C368.526 354.138 369.831 352.789 370.838 351.227C371.846 349.664 372.535 347.919 372.866 346.09C374.26 338.401 368.305 335.68 360.603 334.288C352.9 332.896 346.368 333.36 344.973 341.049Z" fill="white"/>
<path d="M227.783 138.3H125.503V235.429H227.783V138.3Z" fill="#D0CDE1"/>
<path d="M216.161 149.904H137.126V210.241H216.161V149.904Z" fill="white"/>
<path d="M180.038 217.358H137.048V219.617H180.038V217.358Z" fill="#F2F2F2"/>
<path d="M180.038 224.136H137.048V226.395H180.038V224.136Z" fill="#F2F2F2"/>
<path d="M151.19 189.124C156.188 189.124 160.24 185.079 160.24 180.088C160.24 175.098 156.188 171.053 151.19 171.053C146.191 171.053 142.139 175.098 142.139 180.088C142.139 185.079 146.191 189.124 151.19 189.124Z" fill="#051721"/>
<path d="M176.644 189.124C181.643 189.124 185.695 185.079 185.695 180.088C185.695 175.098 181.643 171.053 176.644 171.053C171.646 171.053 167.594 175.098 167.594 180.088C167.594 185.079 171.646 189.124 176.644 189.124Z" fill="#F9A826"/>
<path d="M202.098 189.124C207.096 189.124 211.148 185.079 211.148 180.088C211.148 175.098 207.096 171.053 202.098 171.053C197.099 171.053 193.047 175.098 193.047 180.088C193.047 185.079 197.099 189.124 202.098 189.124Z" fill="#E6E6E6"/>
<path d="M176.644 148.465C179.143 148.465 181.169 146.442 181.169 143.947C181.169 141.452 179.143 139.43 176.644 139.43C174.145 139.43 172.119 141.452 172.119 143.947C172.119 146.442 174.145 148.465 176.644 148.465Z" fill="#051721"/>
<path d="M276.432 326.371H174.152V423.5H276.432V326.371Z" fill="#D0CDE1"/>
<path d="M264.809 337.974H185.775V398.311H264.809V337.974Z" fill="white"/>
<path d="M230.874 347.89H203.167V375.551H230.874V347.89Z" fill="#F9A826"/>
<path d="M213.772 354.807V388.396H247.417V354.807H213.772ZM245.958 386.939H215.232V356.264H245.958V386.939Z" fill="#051721"/>
<path d="M228.686 404.3H185.697V406.559H228.686V404.3Z" fill="#F2F2F2"/>
<path d="M225.292 336.535C227.791 336.535 229.817 334.513 229.817 332.018C229.817 329.523 227.791 327.5 225.292 327.5C222.793 327.5 220.767 329.523 220.767 332.018C220.767 334.513 222.793 336.535 225.292 336.535Z" fill="#051721"/>
<path d="M542.727 297.292H440.447V394.422H542.727V297.292Z" fill="#D0CDE1"/>
<path d="M531.104 308.896H452.069V369.233H531.104V308.896Z" fill="white"/>
<path d="M500.087 356.131H483.084V361.161H500.087V356.131Z" fill="#051721"/>
<path d="M520.643 316.968H462.53V319.124H520.643V316.968Z" fill="#051721"/>
<path d="M520.643 323.795H462.53V325.951H520.643V323.795Z" fill="#051721"/>
<path d="M520.643 330.621H462.53V332.777H520.643V330.621Z" fill="#051721"/>
<path d="M520.643 337.448H462.53V339.604H520.643V337.448Z" fill="#051721"/>
<path d="M520.643 344.274H462.53V346.43H520.643V344.274Z" fill="#051721"/>
<path d="M494.98 375.222H451.991V377.481H494.98V375.222Z" fill="#F2F2F2"/>
<path d="M511.95 380.869H451.991V383.127H511.95V380.869Z" fill="#F2F2F2"/>
<path d="M491.586 307.457C494.085 307.457 496.111 305.435 496.111 302.939C496.111 300.444 494.085 298.422 491.586 298.422C489.087 298.422 487.061 300.444 487.061 302.939C487.061 305.435 489.087 307.457 491.586 307.457Z" fill="#051721"/>
</g>
<defs>
<clipPath id="clip0_559:3255">
<rect width="678.616" height="313.35" fill="white" transform="translate(14.1069 128.857)"/>
</clipPath>
</defs>
</svg>
