<svg width="770" height="655" viewBox="0 0 770 655" fill="none" xmlns="http://www.w3.org/2000/svg">
<path opacity="0.2" fill-rule="evenodd" clip-rule="evenodd" d="M353.379 16.1005C430.209 -23.7465 528.963 21.4613 600.969 69.4847C674.694 118.655 727.443 195.689 750.835 281.18C773.548 364.186 786.681 469.48 727.512 531.955C666.815 596.044 549.636 531.342 472.791 574.76C335.484 652.34 276.782 666.675 193.085 644.874C124.349 626.97 115.15 552.991 92.0798 495.283C66.9586 432.445 -2.78695 363.658 33.0218 306.239C71.7643 244.114 207.934 265.13 262.197 215.986C329.26 155.249 273.064 57.7545 353.379 16.1005Z" fill="#368F8B"/>
<g clip-path="url(#clip0_559:3384)">
<path d="M639.85 467.615H266.337C266.063 467.615 265.799 467.506 265.605 467.312C265.411 467.118 265.302 466.855 265.302 466.58V222.375C265.303 222.101 265.412 221.839 265.606 221.645C265.8 221.452 266.063 221.343 266.337 221.343C266.611 221.343 266.874 221.452 267.067 221.645C267.261 221.839 267.371 222.101 267.372 222.375V465.546H639.85C640.124 465.546 640.386 465.656 640.58 465.85C640.773 466.044 640.882 466.307 640.882 466.58C640.882 466.854 640.773 467.117 640.58 467.311C640.386 467.505 640.124 467.614 639.85 467.615Z" fill="#051721"/>
<path d="M639.85 418.981H266.337C266.063 418.98 265.801 418.871 265.607 418.677C265.414 418.483 265.305 418.22 265.305 417.946C265.305 417.672 265.414 417.409 265.607 417.215C265.801 417.021 266.063 416.912 266.337 416.911H639.85C640.124 416.912 640.386 417.021 640.579 417.215C640.773 417.409 640.881 417.672 640.881 417.946C640.881 418.22 640.773 418.483 640.579 418.677C640.386 418.871 640.124 418.98 639.85 418.981Z" fill="#051721"/>
<path d="M640.367 379.659H266.854C266.58 379.659 266.316 379.55 266.122 379.356C265.928 379.162 265.819 378.899 265.819 378.625C265.819 378.35 265.928 378.087 266.122 377.893C266.316 377.699 266.58 377.59 266.854 377.59H640.367C640.641 377.591 640.903 377.7 641.097 377.894C641.29 378.088 641.399 378.351 641.399 378.625C641.399 378.898 641.29 379.161 641.097 379.355C640.903 379.549 640.641 379.659 640.367 379.659Z" fill="#051721"/>
<path d="M640.367 340.338H266.854C266.581 340.337 266.318 340.228 266.125 340.034C265.931 339.84 265.823 339.577 265.823 339.303C265.823 339.029 265.931 338.767 266.125 338.573C266.318 338.379 266.581 338.269 266.854 338.269H640.367C640.641 338.269 640.904 338.379 641.097 338.573C641.291 338.767 641.399 339.029 641.399 339.303C641.399 339.577 641.291 339.84 641.097 340.034C640.904 340.228 640.641 340.337 640.367 340.338Z" fill="#051721"/>
<path d="M640.367 301.017H266.854C266.58 301.017 266.316 300.908 266.122 300.714C265.928 300.52 265.819 300.257 265.819 299.983C265.819 299.708 265.928 299.445 266.122 299.251C266.316 299.057 266.58 298.948 266.854 298.948H640.367C640.642 298.948 640.905 299.057 641.099 299.251C641.293 299.445 641.402 299.708 641.402 299.983C641.402 300.257 641.293 300.52 641.099 300.714C640.905 300.908 640.642 301.017 640.367 301.017Z" fill="#051721"/>
<path d="M640.367 261.696H266.854C266.58 261.696 266.316 261.587 266.122 261.393C265.928 261.199 265.819 260.936 265.819 260.661C265.819 260.387 265.928 260.124 266.122 259.93C266.316 259.735 266.58 259.626 266.854 259.626H640.367C640.642 259.626 640.905 259.735 641.099 259.93C641.293 260.124 641.402 260.387 641.402 260.661C641.402 260.936 641.293 261.199 641.099 261.393C640.905 261.587 640.642 261.696 640.367 261.696Z" fill="#051721"/>
<path d="M640.367 222.375H266.854C266.581 222.374 266.318 222.265 266.125 222.071C265.931 221.877 265.823 221.614 265.823 221.34C265.823 221.067 265.931 220.804 266.125 220.61C266.318 220.416 266.581 220.306 266.854 220.306H640.367C640.641 220.306 640.904 220.416 641.097 220.61C641.291 220.804 641.399 221.067 641.399 221.34C641.399 221.614 641.291 221.877 641.097 222.071C640.904 222.265 640.641 222.374 640.367 222.375Z" fill="#051721"/>
<path d="M302.986 465.868H289.943C288.339 465.866 286.802 465.228 285.668 464.094C284.534 462.96 283.896 461.422 283.894 459.818V423.841C283.896 422.237 284.534 420.7 285.668 419.565C286.802 418.431 288.339 417.793 289.943 417.792H302.986C304.59 417.793 306.128 418.431 307.262 419.565C308.396 420.7 309.034 422.237 309.035 423.841V459.818C309.034 461.422 308.396 462.96 307.262 464.094C306.128 465.228 304.59 465.866 302.986 465.868Z" fill="#051721"/>
<path d="M357.306 465.868H344.263C342.659 465.866 341.121 465.228 339.987 464.094C338.853 462.96 338.215 461.422 338.213 459.818V393.379C338.215 391.775 338.853 390.238 339.987 389.103C341.121 387.969 342.659 387.331 344.263 387.33H357.306C358.909 387.331 360.447 387.969 361.581 389.103C362.715 390.238 363.353 391.775 363.355 393.379V459.818C363.353 461.422 362.715 462.96 361.581 464.094C360.447 465.228 358.909 465.866 357.306 465.868Z" fill="#051721"/>
<path d="M465.946 465.867H452.903C451.299 465.866 449.761 465.228 448.627 464.094C447.493 462.959 446.855 461.422 446.854 459.818V321.701C446.855 320.097 447.493 318.559 448.627 317.425C449.761 316.291 451.299 315.653 452.903 315.651H465.946C467.549 315.653 469.087 316.291 470.221 317.425C471.355 318.559 471.993 320.097 471.995 321.701V459.818C471.993 461.422 471.355 462.959 470.221 464.094C469.087 465.228 467.549 465.866 465.946 465.867Z" fill="#E6E6E6"/>
<path d="M411.108 465.867H398.065C396.461 465.865 394.923 465.227 393.789 464.093C392.655 462.959 392.017 461.421 392.016 459.817V368.998C392.017 367.394 392.655 365.856 393.789 364.722C394.923 363.588 396.461 362.95 398.065 362.948H411.108C412.712 362.95 414.249 363.588 415.383 364.722C416.517 365.856 417.155 367.394 417.157 368.998V459.818C417.155 461.421 416.517 462.959 415.383 464.093C414.249 465.227 412.712 465.865 411.108 465.867Z" fill="#051721"/>
<path d="M520.264 465.868H507.221C505.617 465.866 504.08 465.228 502.946 464.094C501.812 462.96 501.174 461.422 501.172 459.818V285.35C501.174 283.746 501.812 282.208 502.946 281.074C504.08 279.94 505.617 279.302 507.221 279.3H520.264C521.868 279.302 523.406 279.94 524.54 281.074C525.674 282.208 526.312 283.746 526.313 285.35V459.818C526.312 461.422 525.674 462.96 524.54 464.094C523.406 465.228 521.868 465.866 520.264 465.868Z" fill="#051721"/>
<path d="M574.585 465.867H561.542C559.938 465.866 558.4 465.228 557.266 464.094C556.132 462.959 555.494 461.422 555.493 459.818V321.701C555.494 320.097 556.132 318.559 557.266 317.425C558.4 316.291 559.938 315.653 561.542 315.651H574.585C576.189 315.653 577.726 316.291 578.861 317.425C579.995 318.559 580.632 320.097 580.634 321.701V459.818C580.632 461.422 579.995 462.959 578.861 464.094C577.726 465.228 576.189 465.866 574.585 465.867Z" fill="#051721"/>
<path d="M628.905 465.868H615.862C614.258 465.866 612.72 465.228 611.586 464.094C610.452 462.959 609.814 461.422 609.812 459.818V226.2C609.814 224.596 610.452 223.058 611.586 221.924C612.72 220.79 614.258 220.152 615.862 220.15H628.905C630.508 220.152 632.046 220.79 633.18 221.924C634.314 223.058 634.952 224.596 634.954 226.2V459.818C634.952 461.422 634.314 462.959 633.18 464.094C632.046 465.228 630.508 465.866 628.905 465.868Z" fill="#E6E6E6"/>
<path d="M455.859 261.156C476.668 261.156 493.537 244.286 493.537 223.474C493.537 202.663 476.668 185.792 455.859 185.792C435.049 185.792 418.18 202.663 418.18 223.474C418.18 244.286 435.049 261.156 455.859 261.156Z" fill="#051721"/>
<path d="M441.53 248.232L423.192 257.416L428.318 267.652L446.656 258.468L441.53 248.232Z" fill="#051721"/>
<path d="M430.736 266.613C431.824 264.964 429.14 261.275 424.742 258.375C420.343 255.475 415.896 254.461 414.809 256.111C413.721 257.76 416.405 261.448 420.803 264.348C425.202 267.249 429.649 268.263 430.736 266.613Z" fill="#051721"/>
<path d="M470.186 248.232L465.06 258.468L483.398 267.652L488.523 257.416L470.186 248.232Z" fill="#051721"/>
<path d="M490.913 264.349C495.311 261.449 497.995 257.76 496.907 256.111C495.82 254.461 491.373 255.475 486.975 258.376C482.577 261.276 479.893 264.964 480.98 266.614C482.068 268.263 486.515 267.249 490.913 264.349Z" fill="#051721"/>
<path d="M453.221 227.136C460.333 227.136 466.099 221.37 466.099 214.258C466.099 207.145 460.333 201.379 453.221 201.379C446.109 201.379 440.344 207.145 440.344 214.258C440.344 221.37 446.109 227.136 453.221 227.136Z" fill="white"/>
<path d="M456.353 222.552C458.022 220.882 458.013 218.166 456.331 216.484C454.65 214.803 451.934 214.793 450.265 216.463C448.595 218.132 448.605 220.849 450.286 222.53C451.967 224.211 454.683 224.221 456.353 222.552Z" fill="#051721"/>
<path d="M485.581 182.48C486.148 168.53 474.126 156.713 458.729 156.088C443.333 155.462 430.392 166.264 429.825 180.215C429.259 194.166 439.961 197.335 455.358 197.961C470.755 198.586 485.015 196.431 485.581 182.48Z" fill="#F9A826"/>
<path d="M507.3 243.206C509.778 241.078 506.294 232.953 499.516 225.058C492.739 217.162 485.236 212.487 482.757 214.615C480.279 216.742 483.764 224.868 490.541 232.763C497.319 240.659 504.822 245.334 507.3 243.206Z" fill="#051721"/>
<path d="M421.281 232.763C428.059 224.868 431.543 216.742 429.065 214.615C426.587 212.487 419.084 217.162 412.306 225.058C405.529 232.953 402.044 241.078 404.523 243.206C407.001 245.334 414.504 240.659 421.281 232.763Z" fill="#051721"/>
<path d="M466.206 238.324C466.408 239.434 466.389 240.572 466.152 241.674C465.914 242.776 465.461 243.82 464.819 244.748C464.178 245.675 463.36 246.467 462.413 247.078C461.465 247.689 460.407 248.107 459.297 248.309C458.188 248.511 457.05 248.492 455.948 248.255C454.846 248.017 453.802 247.564 452.875 246.922C451.948 246.281 451.156 245.463 450.545 244.515C449.934 243.568 449.516 242.509 449.314 241.4L449.311 241.383C448.466 236.717 452.073 235.066 456.739 234.221C461.404 233.377 465.362 233.658 466.206 238.324Z" fill="white"/>
<path d="M757.39 435.856C759.957 433.707 756.488 425.334 749.641 417.155C742.793 408.976 735.162 404.089 732.594 406.238C730.027 408.388 733.496 416.761 740.344 424.94C747.191 433.119 754.823 438.006 757.39 435.856Z" fill="#051721"/>
<path d="M740.553 426.556C747.299 406.317 736.362 384.44 716.125 377.694C695.888 370.948 674.014 381.886 667.268 402.125C660.523 422.364 671.46 444.24 691.697 450.986C711.934 457.733 733.808 446.795 740.553 426.556Z" fill="#051721"/>
<path d="M720.259 444.656H708.525V465.682H720.259V444.656Z" fill="#051721"/>
<path d="M696.792 444.656H685.058V465.682H696.792V444.656Z" fill="#051721"/>
<path d="M710.48 469.593C715.881 469.593 720.259 467.951 720.259 465.926C720.259 463.901 715.881 462.259 710.48 462.259C705.08 462.259 700.702 463.901 700.702 465.926C700.702 467.951 705.08 469.593 710.48 469.593Z" fill="#051721"/>
<path d="M687.013 469.105C692.414 469.105 696.792 467.463 696.792 465.437C696.792 463.412 692.414 461.77 687.013 461.77C681.613 461.77 677.235 463.412 677.235 465.437C677.235 467.463 681.613 469.105 687.013 469.105Z" fill="#051721"/>
<path d="M691.782 365.783C695.231 351.892 710.455 343.718 725.785 347.525C741.116 351.332 750.748 365.679 747.299 379.57C743.851 393.461 732.408 393.506 717.078 389.698C701.747 385.891 688.333 379.674 691.782 365.783Z" fill="#CCCCCC"/>
<path d="M677.856 404.693C679.291 401.667 672.642 395.509 663.005 390.938C653.368 386.367 644.392 385.114 642.957 388.139C641.523 391.165 648.172 397.323 657.809 401.894C667.445 406.466 676.421 407.718 677.856 404.693Z" fill="#051721"/>
<path d="M698.136 419.068C705.248 419.068 711.013 413.302 711.013 406.189C711.013 399.077 705.248 393.311 698.136 393.311C691.024 393.311 685.258 399.077 685.258 406.189C685.258 413.302 691.024 419.068 698.136 419.068Z" fill="white"/>
<path d="M692.843 405.866C695.214 405.866 697.136 403.944 697.136 401.573C697.136 399.202 695.214 397.28 692.843 397.28C690.473 397.28 688.551 399.202 688.551 401.573C688.551 403.944 690.473 405.866 692.843 405.866Z" fill="#051721"/>
<path d="M706.214 433.022C706.62 435.261 706.12 437.57 704.824 439.441C703.529 441.312 701.543 442.592 699.304 443C697.065 443.408 694.756 442.91 692.884 441.615C691.012 440.321 689.731 438.336 689.322 436.097L689.319 436.08C688.474 431.414 692.081 429.763 696.747 428.919C701.412 428.074 705.369 428.356 706.214 433.022Z" fill="white"/>
<path d="M651.482 479.201H638.439C636.835 479.199 635.298 478.561 634.164 477.427C633.03 476.293 632.392 474.755 632.39 473.151V239.534C632.392 237.93 633.03 236.392 634.164 235.258C635.298 234.124 636.835 233.486 638.439 233.484H651.482C653.086 233.486 654.624 234.124 655.758 235.258C656.892 236.392 657.53 237.93 657.531 239.534V473.151C657.53 474.755 656.892 476.293 655.758 477.427C654.624 478.561 653.086 479.199 651.482 479.201Z" fill="#F9A826"/>
<path d="M102.598 452.968C123.93 452.968 141.223 435.674 141.223 414.34C141.223 393.006 123.93 375.711 102.598 375.711C81.2664 375.711 63.9736 393.006 63.9736 414.34C63.9736 435.674 81.2664 452.968 102.598 452.968Z" fill="#051721"/>
<path d="M96.7321 444.656H84.998V465.682H96.7321V444.656Z" fill="#051721"/>
<path d="M120.199 444.656H108.465V465.682H120.199V444.656Z" fill="#051721"/>
<path d="M94.7764 469.593C100.177 469.593 104.555 467.951 104.555 465.926C104.555 463.901 100.177 462.259 94.7764 462.259C89.376 462.259 84.998 463.901 84.998 465.926C84.998 467.951 89.376 469.593 94.7764 469.593Z" fill="#051721"/>
<path d="M118.243 469.105C123.644 469.105 128.022 467.463 128.022 465.437C128.022 463.412 123.644 461.77 118.243 461.77C112.843 461.77 108.465 463.412 108.465 465.437C108.465 467.463 112.843 469.105 118.243 469.105Z" fill="#051721"/>
<path d="M103.576 417.762C110.866 417.762 116.777 411.851 116.777 404.56C116.777 397.269 110.866 391.358 103.576 391.358C96.2852 391.358 90.375 397.269 90.375 404.56C90.375 411.851 96.2852 417.762 103.576 417.762Z" fill="white"/>
<path d="M103.576 408.962C106.006 408.962 107.976 406.991 107.976 404.561C107.976 402.13 106.006 400.16 103.576 400.16C101.146 400.16 99.1758 402.13 99.1758 404.561C99.1758 406.991 101.146 408.962 103.576 408.962Z" fill="#051721"/>
<path d="M65.1321 378.417C62.0133 364.448 71.9827 350.333 87.3994 346.89C102.816 343.448 117.842 351.981 120.961 365.949C124.079 379.918 113.862 385.07 98.4456 388.513C83.029 391.955 68.2508 392.385 65.1321 378.417Z" fill="#CCCCCC"/>
<path d="M130.762 276.339C134.57 266.375 135.121 257.328 131.994 256.133C128.866 254.937 123.244 262.045 119.436 272.009C115.628 281.973 115.076 291.02 118.204 292.216C121.331 293.411 126.954 286.303 130.762 276.339Z" fill="#051721"/>
<path d="M127.524 309.532C130.941 288.474 116.641 268.632 95.5852 265.215C74.5289 261.797 54.6894 276.098 51.2724 297.157C47.8554 318.215 62.1549 338.057 83.2112 341.474C104.268 344.892 124.107 330.591 127.524 309.532Z" fill="#051721"/>
<path d="M83.5304 333.66H71.7964V354.686H83.5304V333.66Z" fill="#051721"/>
<path d="M106.999 333.66H95.2646V354.686H106.999V333.66Z" fill="#051721"/>
<path d="M81.5748 358.598C86.9752 358.598 91.3531 356.956 91.3531 354.93C91.3531 352.905 86.9752 351.263 81.5748 351.263C76.1743 351.263 71.7964 352.905 71.7964 354.93C71.7964 356.956 76.1743 358.598 81.5748 358.598Z" fill="#051721"/>
<path d="M105.043 358.108C110.443 358.108 114.821 356.467 114.821 354.441C114.821 352.416 110.443 350.774 105.043 350.774C99.6426 350.774 95.2646 352.416 95.2646 354.441C95.2646 356.467 99.6426 358.108 105.043 358.108Z" fill="#051721"/>
<path d="M90.7636 306.761C98.051 306.547 103.785 300.465 103.571 293.177C103.357 285.889 97.2755 280.154 89.9881 280.368C82.7006 280.582 76.9666 286.664 77.1807 293.952C77.3949 301.241 83.4761 306.975 90.7636 306.761Z" fill="white"/>
<path d="M90.3759 297.966C92.8061 297.966 94.7762 295.995 94.7762 293.565C94.7762 291.134 92.8061 289.164 90.3759 289.164C87.9457 289.164 85.9756 291.134 85.9756 293.565C85.9756 295.995 87.9457 297.966 90.3759 297.966Z" fill="#051721"/>
<path d="M51.9304 267.42C48.8116 253.452 58.7811 239.337 74.1977 235.894C89.6143 232.452 104.64 240.984 107.759 254.953C110.878 268.922 100.661 274.074 85.2439 277.516C69.8273 280.959 55.0491 281.389 51.9304 267.42Z" fill="#F9A826"/>
<path d="M63.3431 293.697C64.778 290.671 58.1289 284.513 48.492 279.942C38.855 275.37 29.8796 274.118 28.4447 277.143C27.0099 280.169 33.6589 286.327 43.2959 290.898C52.9328 295.469 61.9082 296.722 63.3431 293.697Z" fill="#051721"/>
<path d="M70.4248 317.279C70.4248 321.06 80.1585 328.525 90.9594 328.525C101.76 328.525 111.887 317.882 111.887 314.101C111.887 310.32 101.76 314.834 90.9594 314.834C80.1585 314.834 70.4248 313.499 70.4248 317.279Z" fill="white"/>
<path d="M464.781 363.892L452.123 367.038C450.566 367.423 448.92 367.175 447.546 366.348C446.172 365.521 445.182 364.182 444.794 362.626L411.487 228.586C411.102 227.029 411.35 225.383 412.177 224.008C413.005 222.634 414.343 221.644 415.899 221.256L428.557 218.11C430.114 217.725 431.76 217.973 433.134 218.8C434.508 219.627 435.498 220.966 435.886 222.522L469.193 356.562C469.578 358.119 469.33 359.765 468.503 361.14C467.675 362.514 466.337 363.504 464.781 363.892Z" fill="#F9A826"/>
<path d="M163.936 295.065L135.505 300.615C135.044 300.707 134.569 300.692 134.115 300.572C133.661 300.452 133.241 300.23 132.886 299.923C132.524 299.612 132.237 299.222 132.048 298.784C131.859 298.346 131.772 297.87 131.795 297.393C132.28 285.733 130.014 274.123 125.18 263.502C124.98 263.068 124.881 262.595 124.891 262.118C124.902 261.64 125.021 261.172 125.24 260.748C125.453 260.329 125.759 259.966 126.135 259.684C126.51 259.402 126.945 259.209 127.406 259.121L155.837 253.57C156.564 253.43 157.317 253.552 157.962 253.915C158.607 254.278 159.103 254.858 159.36 255.552C163.566 267.236 165.959 279.495 166.455 291.904C166.478 292.644 166.237 293.367 165.775 293.946C165.314 294.525 164.662 294.922 163.936 295.065Z" fill="#FF6584"/>
<path d="M39.2748 321.076L10.8436 326.626C10.3831 326.717 9.90792 326.702 9.4541 326.582C9.00027 326.462 8.57982 326.24 8.22476 325.933C7.86245 325.622 7.57583 325.233 7.38675 324.795C7.19766 324.356 7.11109 323.881 7.13362 323.404C7.61863 311.744 5.35249 300.134 0.518535 289.512C0.318427 289.079 0.219826 288.606 0.230239 288.128C0.240652 287.651 0.359804 287.183 0.578624 286.758C0.792142 286.34 1.09823 285.976 1.4736 285.694C1.84898 285.412 2.28372 285.22 2.74473 285.131L31.1759 279.581C31.9027 279.441 32.6557 279.563 33.3008 279.926C33.946 280.289 34.4415 280.869 34.6991 281.563C38.9046 293.247 41.2974 305.506 41.7942 317.914C41.8165 318.654 41.5755 319.378 41.1141 319.957C40.6528 320.536 40.001 320.932 39.2748 321.076Z" fill="#CCCCCC"/>
<path d="M225.268 231.206C230.717 231.206 235.133 226.789 235.133 221.34C235.133 215.891 230.717 211.474 225.268 211.474C219.82 211.474 215.403 215.891 215.403 221.34C215.403 226.789 219.82 231.206 225.268 231.206Z" fill="#E6E6E6"/>
<path d="M225.268 270.527C230.717 270.527 235.133 266.11 235.133 260.661C235.133 255.212 230.717 250.795 225.268 250.795C219.82 250.795 215.403 255.212 215.403 260.661C215.403 266.11 219.82 270.527 225.268 270.527Z" fill="#E6E6E6"/>
<path d="M225.268 309.849C230.717 309.849 235.133 305.432 235.133 299.983C235.133 294.534 230.717 290.117 225.268 290.117C219.82 290.117 215.403 294.534 215.403 299.983C215.403 305.432 219.82 309.849 225.268 309.849Z" fill="#E6E6E6"/>
<path d="M225.268 349.17C230.717 349.17 235.133 344.752 235.133 339.303C235.133 333.854 230.717 329.437 225.268 329.437C219.82 329.437 215.403 333.854 215.403 339.303C215.403 344.752 219.82 349.17 225.268 349.17Z" fill="#E6E6E6"/>
<path d="M225.268 388.491C230.717 388.491 235.133 384.074 235.133 378.625C235.133 373.176 230.717 368.758 225.268 368.758C219.82 368.758 215.403 373.176 215.403 378.625C215.403 384.074 219.82 388.491 225.268 388.491Z" fill="#E6E6E6"/>
<path d="M225.268 427.813C230.717 427.813 235.133 423.395 235.133 417.946C235.133 412.497 230.717 408.08 225.268 408.08C219.82 408.08 215.403 412.497 215.403 417.946C215.403 423.395 219.82 427.813 225.268 427.813Z" fill="#E6E6E6"/>
</g>
<defs>
<clipPath id="clip0_559:3384">
<rect width="758.007" height="323.139" fill="white" transform="translate(0.229492 156.062)"/>
</clipPath>
</defs>
</svg>
