<svg width="24" height="25" viewBox="0 0 32 33" fill="none" xmlns="http://www.w3.org/2000/svg">
<path d="M13 24.6249C12.8686 24.6251 12.7386 24.5993 12.6172 24.5491C12.4959 24.4988 12.3857 24.4251 12.2929 24.3321L5.29295 17.3326C5.20008 17.2398 5.12642 17.1296 5.07615 17.0082C5.02589 16.8869 5.00001 16.7569 5 16.6256C4.99999 16.4942 5.02584 16.3642 5.07609 16.2429C5.12633 16.1216 5.19998 16.0113 5.29283 15.9184C5.38567 15.8256 5.49591 15.7519 5.61722 15.7017C5.73854 15.6514 5.86857 15.6255 5.99989 15.6255C6.13121 15.6255 6.26125 15.6513 6.38258 15.7016C6.5039 15.7518 6.61415 15.8255 6.70701 15.9183L13 22.2107L26.2928 8.91839C26.4804 8.73107 26.7347 8.62589 26.9998 8.62598C27.2649 8.62606 27.5191 8.7314 27.7066 8.91885C27.894 9.10629 27.9994 9.36049 27.9995 9.62559C27.9996 9.89068 27.8944 10.145 27.7071 10.3326L13.7071 24.3321C13.6144 24.4251 13.5041 24.4988 13.3828 24.549C13.2614 24.5993 13.1313 24.6251 13 24.6249Z" fill="#DADAD8"/>
</svg>
